<svg width="80" height="80" viewBox="0 0 80 80" fill="none" xmlns="http://www.w3.org/2000/svg">
<path d="M74.3732 27.2718L24.407 72.2857C19.0939 76.8921 11.054 76.3232 6.44756 71.01C1.96396 65.8397 2.36746 58.0505 7.36232 53.3739L57.331 8.35498" fill="url(#paint0_linear_29_879)"/>
<path d="M54.3986 15.6637L54.2217 48.3516C54.1889 54.414 59.0769 59.3552 65.1394 59.388L65.1419 59.388C71.2043 59.4208 76.1455 54.5328 76.1783 48.4704L76.3551 15.7825C76.3879 9.72006 71.4999 4.77889 65.4375 4.74609L65.435 4.74608C59.3726 4.71328 54.4314 9.60126 54.3986 15.6637Z" fill="url(#paint1_linear_29_879)"/>
<path d="M76.4483 15.5431C76.4508 21.5981 71.5461 26.5103 65.4886 26.5128L33.1737 26.5303C27.1187 26.5328 22.2065 21.6282 22.204 15.5707C22.199 9.5157 27.1061 4.60355 33.1611 4.60104L65.4761 4.5835C71.5311 4.58099 76.4432 9.48563 76.4458 15.5431H76.4483Z" fill="url(#paint2_linear_29_879)"/>
<path d="M32.8028 26.5651C38.8695 26.5651 43.7875 21.6471 43.7875 15.5804C43.7875 9.51371 38.8695 4.5957 32.8028 4.5957C26.7362 4.5957 21.8181 9.51371 21.8181 15.5804C21.8181 21.6471 26.7362 26.5651 32.8028 26.5651Z" fill="#FF5C35"/>
<defs>
<linearGradient id="paint0_linear_29_879" x1="38.8528" y1="8.35498" x2="38.8528" y2="75.4009" gradientUnits="userSpaceOnUse">
<stop offset="0.18" stop-color="#FF814E"/>
<stop offset="0.82" stop-color="#FF5C35"/>
</linearGradient>
<linearGradient id="paint1_linear_29_879" x1="65.2905" y1="4.74694" x2="65.2905" y2="59.3897" gradientUnits="userSpaceOnUse">
<stop offset="0.18" stop-color="#FF824E"/>
<stop offset="0.45" stop-color="#FF7E4B"/>
<stop offset="0.71" stop-color="#FF7243"/>
<stop offset="0.97" stop-color="#FF5E36"/>
<stop offset="1" stop-color="#FF5C35"/>
</linearGradient>
<linearGradient id="paint2_linear_29_879" x1="64.8519" y1="-0.000835747" x2="30.758" y2="29.8439" gradientUnits="userSpaceOnUse">
<stop offset="0.27" stop-color="#FF824E"/>
<stop offset="0.74" stop-color="#FFA766"/>
</linearGradient>
</defs>
</svg>
