<svg width="80" height="80" viewBox="0 0 80 80" fill="none" xmlns="http://www.w3.org/2000/svg">
<g clip-path="url(#clip0_29_526)">
<path d="M23.5955 74.67L66.8814 49.2379C71.8917 46.2941 73.6084 39.7744 70.7156 34.6756C67.8229 29.5768 61.4162 27.8299 56.4059 30.7736L13.12 56.2058C8.10969 59.1496 6.39302 65.6693 9.28574 70.7681C12.1785 75.8668 18.5852 77.6138 23.5955 74.67Z" fill="#FF5C35"/>
<path d="M28.845 65.4328L28.845 14.5685C28.845 8.681 24.1549 3.9082 18.3695 3.9082C12.5841 3.9082 7.89404 8.681 7.89404 14.5685L7.89404 65.4328C7.89404 71.3204 12.5841 76.0932 18.3695 76.0932C24.1549 76.0932 28.845 71.3204 28.845 65.4328Z" fill="url(#paint0_linear_29_526)"/>
<path d="M66.88 30.7623L23.5941 5.33017C18.5838 2.3864 12.1771 4.13336 9.28436 9.23212C6.39165 14.3309 8.10831 20.8506 13.1186 23.7944L56.4045 49.2265C61.4148 52.1703 67.8215 50.4234 70.7143 45.3246C73.607 40.2258 71.8903 33.7061 66.88 30.7623Z" fill="url(#paint1_linear_29_526)"/>
<path d="M61.6553 50.716C67.4545 50.716 72.1557 45.9319 72.1557 40.0304C72.1557 34.1288 67.4545 29.3447 61.6553 29.3447C55.8562 29.3447 51.155 34.1288 51.155 40.0304C51.155 45.9319 55.8562 50.716 61.6553 50.716Z" fill="#FF5C35"/>
</g>
<defs>
<linearGradient id="paint0_linear_29_526" x1="29.077" y1="6.93594" x2="6.96806" y2="72.8354" gradientUnits="userSpaceOnUse">
<stop offset="0.18" stop-color="#FF824E"/>
<stop offset="0.42" stop-color="#FF7747"/>
<stop offset="0.82" stop-color="#FF5C35"/>
</linearGradient>
<linearGradient id="paint1_linear_29_526" x1="30.9295" y1="-0.842937" x2="49.652" y2="55.208" gradientUnits="userSpaceOnUse">
<stop offset="0.27" stop-color="#FF824E"/>
<stop offset="0.74" stop-color="#FFA766"/>
</linearGradient>
<clipPath id="clip0_29_526">
<rect width="80" height="80" fill="white"/>
</clipPath>
</defs>
</svg>
