<?xml version="1.0" encoding="UTF-8"?><svg id="a" xmlns="http://www.w3.org/2000/svg" viewBox="0 0 91.61 96"><path d="m70.397,31.596v-11.429c2.983-1.409,5.073-4.427,5.073-7.93v-.264c0-4.834-3.955-8.788-8.788-8.788h-.264c-4.834,0-8.789,3.955-8.789,8.788v.264c0,3.503,2.091,6.521,5.074,7.93v11.429c-4.442.686-8.5,2.518-11.849,5.214L19.474,12.399c.206-.795.351-1.614.352-2.473C19.834,4.451,15.401.007,9.926,0,4.451-.007.007,4.426,0,9.901c-.007,5.475,4.426,9.919,9.901,9.926,1.784.002,3.436-.505,4.883-1.328l30.869,24.013c-2.625,3.963-4.163,8.709-4.163,13.819,0,5.35,1.69,10.298,4.546,14.368l-9.388,9.388c-.742-.223-1.513-.378-2.328-.378-4.499,0-8.146,3.647-8.146,8.146s3.647,8.146,8.146,8.146,8.146-3.647,8.146-8.146c0-.815-.156-1.585-.378-2.327l9.286-9.286c4.215,3.218,9.464,5.15,15.176,5.15,13.84,0,25.06-11.22,25.06-25.06,0-12.529-9.204-22.88-21.213-24.735Zm-3.846,37.583c-7.096,0-12.849-5.752-12.849-12.848s5.753-12.848,12.849-12.848,12.848,5.752,12.848,12.848-5.753,12.848-12.848,12.848Z" fill="#f15e3c" stroke-width="0"/></svg>