<?xml version="1.0" encoding="UTF-8"?><svg id="Icons_Gradient" xmlns="http://www.w3.org/2000/svg" xmlns:xlink="http://www.w3.org/1999/xlink" viewBox="0 0 1920 1920"><defs><style>.cls-1{fill:none;}.cls-1,.cls-2,.cls-3,.cls-4{stroke-width:0px;}.cls-2{fill:url(#linear-gradient);}.cls-3{fill:url(#linear-gradient-2);}.cls-4{fill:#ff5c35;}</style><linearGradient id="linear-gradient" x1="767.73" y1="2260.38" x2="309.45" y2="-64.46" gradientUnits="userSpaceOnUse"><stop offset=".05" stop-color="#ff5c35"/><stop offset=".53" stop-color="#fd804e"/><stop offset=".74" stop-color="#fda566"/></linearGradient><linearGradient id="linear-gradient-2" x1="632.07" y1="-139.19" x2="1885.14" y2="1930.4" xlink:href="#linear-gradient"/></defs><rect class="cls-1" x="0" y="0" width="1920" height="1920"/><g id="Icon_Only"><g id="Circle_02"><path class="cls-2" d="M1015.86,1251.13c-160.79,30.85-316.14-74.48-346.99-235.27-30.85-160.79,74.48-316.14,235.27-346.99h0l-110.86-577.77h0C313.4,183.18-.98,646.84,91.1,1126.72c92.08,479.88,555.74,794.26,1035.62,702.18h0l-110.86-577.77h0Z"/><path class="cls-3" d="M1828.9,793.28C1736.82,313.4,1273.16-.98,793.28,91.1l110.86,577.77c160.79-30.85,316.14,74.48,346.99,235.27,30.85,160.79-74.48,316.14-235.27,346.99l110.86,577.77c479.88-92.08,794.26-555.74,702.18-1035.62Z"/><circle class="cls-4" cx="848.71" cy="379.99" r="294.05" transform="translate(-20.11 711.42) rotate(-45)"/><circle class="cls-4" cx="1071.29" cy="1540.01" r="294.05" transform="translate(-775.18 1208.58) rotate(-45)"/></g></g></svg>