<svg width="80" height="80" viewBox="0 0 80 80" fill="none" xmlns="http://www.w3.org/2000/svg">
<path d="M16.9058 63.3334C15.0339 63.3333 13.1995 62.8079 11.6115 61.8168C10.0234 60.8257 8.74545 59.4087 7.92295 57.7272C7.10046 56.0456 6.76646 54.1669 6.95898 52.3049C7.1515 50.4429 7.86279 48.6723 9.01192 47.1946C10.7806 44.9201 11.6775 42.4995 11.6775 40C11.6775 37.5005 10.7806 35.0798 9.01192 32.8054C8.2019 31.769 7.60428 30.5831 7.25328 29.3155C6.90229 28.0479 6.80481 26.7235 6.96645 25.4181C7.12808 24.1128 7.54564 22.8521 8.19522 21.7084C8.8448 20.5647 9.71363 19.5603 10.752 18.7529C11.7903 17.9455 12.9777 17.3508 14.2462 17.003C15.5147 16.6551 16.8393 16.561 18.1443 16.7259C19.4492 16.8907 20.7088 17.3115 21.8509 17.9639C22.993 18.6163 23.9952 19.4876 24.8 20.528C29.2993 26.3137 31.6775 33.0471 31.6775 40C31.6775 46.953 29.2993 53.6863 24.8 59.4721C23.865 60.6743 22.6679 61.6471 21.2998 62.3163C19.9317 62.9855 18.4288 63.3333 16.9058 63.3334Z" fill="#FF5C35"/>
<path d="M63.0942 63.3333C61.5712 63.3333 60.0683 62.9854 58.7002 62.3162C57.3321 61.647 56.1349 60.6742 55.1999 59.472C50.7007 53.6862 48.3225 46.9529 48.3225 40C48.3225 33.047 50.7007 26.3137 55.2 20.5279C56.8287 18.4361 59.2214 17.0766 61.8521 16.7484C64.4828 16.4201 67.1362 17.1499 69.229 18.7774C71.3218 20.4048 72.6827 22.7967 73.0126 25.4272C73.3424 28.0577 72.6142 30.7115 70.9881 32.8053C69.2194 35.0798 68.3225 37.5004 68.3225 40C68.3225 42.4995 69.2194 44.9201 70.9881 47.1946C72.1372 48.6723 72.8485 50.4429 73.041 52.3049C73.2335 54.1669 72.8995 56.0456 72.077 57.7271C71.2545 59.4087 69.9766 60.8256 68.3885 61.8167C66.8005 62.8078 64.9661 63.3333 63.0942 63.3333Z" fill="#FF5C35"/>
<path d="M20.2561 36.9006C18.6773 36.8994 17.1005 36.7897 15.5367 36.5722C14.234 36.3946 12.9792 35.9618 11.8439 35.2986C10.7087 34.6354 9.71534 33.7549 8.92077 32.7074C8.1262 31.6599 7.54599 30.466 7.21334 29.1941C6.88069 27.9221 6.80213 26.597 6.98216 25.2946C7.16219 23.9923 7.59727 22.7382 8.26251 21.6042C8.92774 20.4701 9.81007 19.4784 10.859 18.6857C11.9079 17.8931 13.1029 17.315 14.3755 16.9847C15.648 16.6544 16.9733 16.5782 18.2753 16.7606C21.1292 17.1551 23.674 16.7215 25.8387 15.4717C28.0034 14.2219 29.6512 12.235 30.7367 9.56601C31.2304 8.34811 31.9593 7.23947 32.8817 6.30346C33.8042 5.36746 34.9021 4.62245 36.1126 4.11104C37.3232 3.59962 38.6227 3.33184 39.9368 3.32298C41.251 3.31413 42.5539 3.56438 43.7713 4.05944C44.9886 4.55449 46.0965 5.28464 47.0314 6.20813C47.9664 7.13162 48.7102 8.23034 49.2203 9.44147C49.7303 10.6526 49.9967 11.9524 50.0041 13.2665C50.0114 14.5807 49.7597 15.8834 49.2633 17.1002C46.5024 23.8895 41.8602 29.3158 35.8386 32.7923C31.1337 35.5086 25.8187 36.9006 20.2561 36.9006Z" fill="#FF5C35"/>
<path d="M40 76.6665C38.361 76.6665 36.747 76.2636 35.3003 75.4933C33.8536 74.723 32.6183 73.6089 31.7033 72.249C30.7883 70.8891 30.2216 69.3252 30.0531 67.6949C29.8845 66.0645 30.1193 64.4177 30.7367 62.8994C33.4977 56.1101 38.1398 50.6839 44.1613 47.2074C50.1827 43.7309 57.2029 42.4241 64.4633 43.4274C65.7663 43.6047 67.0215 44.0373 68.1571 44.7003C69.2927 45.3633 70.2864 46.2438 71.0812 47.2914C71.8761 48.339 72.4566 49.533 72.7894 50.8052C73.1222 52.0774 73.2008 53.4027 73.0208 54.7053C72.8407 56.0079 72.4055 57.2622 71.7401 58.3964C71.0746 59.5306 70.192 60.5225 69.1428 61.3151C68.0935 62.1078 66.8983 62.6857 65.6254 63.0158C64.3525 63.346 63.027 63.4218 61.7248 63.239C58.8706 62.8445 56.3259 63.2781 54.1613 64.5279C51.9967 65.7776 50.3488 67.7646 49.2634 70.4336C48.5142 72.2759 47.2326 73.853 45.5825 74.9632C43.9325 76.0735 41.9888 76.6665 40 76.6665V76.6665Z" fill="#FF5C35"/>
<path d="M59.7439 36.9009C54.1808 36.9009 48.8667 35.5092 44.1613 32.7926C38.1398 29.3161 33.4977 23.8898 30.7367 17.1005C29.7411 14.6444 29.7612 11.8935 30.7925 9.45218C31.8239 7.01087 33.7822 5.0788 36.2372 4.08043C38.6921 3.08207 41.4431 3.09907 43.8855 4.12769C46.328 5.15632 48.2622 7.11245 49.2633 9.56632C50.3487 12.2353 51.9967 14.2222 54.1613 15.4719C56.3258 16.7217 58.8707 17.1553 61.7247 16.7609C63.0268 16.5785 64.352 16.6547 65.6246 16.985C66.8971 17.3154 68.0921 17.8934 69.141 18.6861C70.19 19.4787 71.0723 20.4704 71.7375 21.6045C72.4028 22.7385 72.8378 23.9926 73.0179 25.295C73.1979 26.5973 73.1193 27.9224 72.7867 29.1944C72.454 30.4664 71.8738 31.6602 71.0793 32.7077C70.2847 33.7552 69.2914 34.6357 68.1561 35.2989C67.0209 35.9621 65.766 36.3949 64.4633 36.5725C62.8996 36.79 61.3227 36.8997 59.7439 36.9009V36.9009Z" fill="url(#paint0_linear_29_864)"/>
<path d="M40 76.6666C38.0112 76.6666 36.0675 76.0736 34.4175 74.9633C32.7674 73.8531 31.4859 72.276 30.7367 70.4337C29.6513 67.7648 28.0033 65.7778 25.8387 64.528C23.6741 63.2782 21.1292 62.8447 18.2752 63.2391C16.973 63.4219 15.6475 63.3461 14.3746 63.016C13.1018 62.6858 11.9065 62.1079 10.8572 61.3152C9.80799 60.5226 8.92539 59.5308 8.25995 58.3966C7.59452 57.2624 7.15931 56.0081 6.97926 54.7055C6.7992 53.4028 6.87783 52.0775 7.21064 50.8053C7.54345 49.5331 8.1239 48.3391 8.91877 47.2915C9.71364 46.244 10.7073 45.3635 11.8429 44.7004C12.9785 44.0374 14.2338 43.6048 15.5367 43.4275C22.7969 42.4239 29.8172 43.731 35.8387 47.2075C41.8602 50.684 46.5023 56.1102 49.2633 62.8996C49.8807 64.4178 50.1155 66.0646 49.947 67.695C49.7784 69.3253 49.2117 70.8893 48.2967 72.2491C47.3817 73.609 46.1465 74.7231 44.6997 75.4934C43.253 76.2637 41.639 76.6666 40 76.6666V76.6666Z" fill="url(#paint1_linear_29_864)"/>
<path d="M63.094 36.6665C68.6168 36.6665 73.094 32.1894 73.094 26.6665C73.094 21.1437 68.6168 16.6665 63.094 16.6665C57.5711 16.6665 53.094 21.1437 53.094 26.6665C53.094 32.1894 57.5711 36.6665 63.094 36.6665Z" fill="#FF5C35"/>
<path d="M20.298 43.1284C25.8651 43.1284 31.1698 44.5134 35.8521 47.2168C41.854 50.6819 46.4915 56.1162 49.2633 62.932C49.7612 64.1491 50.0142 65.4524 50.0077 66.7674C50.0013 68.0824 49.7356 69.3832 49.2258 70.5953C48.716 71.8074 47.9721 72.9071 47.0368 73.8314C46.1015 74.7557 44.993 75.4865 43.7749 75.9818C42.5568 76.4772 41.2529 76.7274 39.938 76.7182C38.623 76.7091 37.3228 76.4406 36.1117 75.9283C34.9007 75.416 33.8025 74.6698 32.8802 73.7325C31.9579 72.7953 31.2294 71.6853 30.7366 70.4661C29.6403 67.7703 27.9969 65.7756 25.8521 64.5372C24.2267 63.5988 22.3686 63.127 20.3095 63.1269C19.6289 63.1284 18.9492 63.1768 18.2752 63.2715C15.648 63.6347 12.9841 62.9393 10.8696 61.3384C8.75516 59.7375 7.36324 57.3622 7.00008 54.735C6.63693 52.1078 7.33229 49.444 8.93321 47.3295C10.5341 45.215 12.9094 43.8231 15.5366 43.4599C17.1143 43.2405 18.7051 43.1297 20.298 43.1284V43.1284Z" fill="url(#paint2_linear_29_864)"/>
<defs>
<linearGradient id="paint0_linear_29_864" x1="33.8225" y1="5.72661" x2="71.0317" y2="39.0289" gradientUnits="userSpaceOnUse">
<stop offset="0.186" stop-color="#FF5C35"/>
<stop offset="0.613" stop-color="#FFA766"/>
</linearGradient>
<linearGradient id="paint1_linear_29_864" x1="48.5626" y1="71.2755" x2="10.7801" y2="45.7105" gradientUnits="userSpaceOnUse">
<stop offset="0.158" stop-color="#FF5C35"/>
<stop offset="0.953" stop-color="#FFA766"/>
</linearGradient>
<linearGradient id="paint2_linear_29_864" x1="46.1846" y1="74.2981" x2="8.9753" y2="40.9958" gradientUnits="userSpaceOnUse">
<stop offset="0.111" stop-color="#FF5C35"/>
<stop offset="0.876" stop-color="#FFA766"/>
</linearGradient>
</defs>
</svg>
