<svg width="80" height="80" viewBox="0 0 80 80" fill="none" xmlns="http://www.w3.org/2000/svg">
<path d="M65.8323 62.0264L49.5722 11.9828C48.3292 7.87459 44.5141 4.8833 40 4.8833C35.4859 4.8833 31.671 7.87459 30.4278 11.9828L14.1677 62.0264C13.5142 64.0349 13.5135 66.1987 14.1658 68.2077C14.8181 70.2166 16.0898 71.9673 17.7986 73.2088C19.5074 74.4503 21.5654 75.1187 23.6776 75.1182C25.7897 75.1178 27.8475 74.4484 29.5557 73.2062L29.5561 73.2067L40 65.6188L50.4439 73.2067C50.4463 73.2084 50.4489 73.2096 50.4513 73.2113C52.1601 74.4507 54.2174 75.1175 56.3284 75.1162C58.4394 75.1149 60.4959 74.4455 62.2032 73.2039C63.9106 71.9624 65.1812 70.2124 65.8331 68.2045C66.485 66.1967 66.4847 64.034 65.8323 62.0264V62.0264Z" fill="#FF5C35"/>
<path d="M56.3217 75.1166C54.2099 75.1166 52.1524 74.4481 50.4439 73.2068L7.71301 42.161C6.65059 41.3891 5.75061 40.4155 5.06446 39.2958C4.3783 38.1761 3.9194 36.9322 3.71397 35.6352C3.50854 34.3381 3.56059 33.0133 3.86715 31.7364C4.17371 30.4594 4.72879 29.2554 5.50068 28.193C6.27257 27.1305 7.24616 26.2306 8.36586 25.5444C9.48557 24.8582 10.7295 24.3994 12.0265 24.1939C13.3236 23.9885 14.6484 24.0405 15.9253 24.3471C17.2022 24.6537 18.4063 25.2087 19.4687 25.9806L62.1996 57.0264C63.9081 58.2677 65.1797 60.018 65.8323 62.0265C66.4849 64.0349 66.4849 66.1984 65.8323 68.2068C65.1798 70.2153 63.9081 71.9656 62.1996 73.2068C60.4911 74.4481 58.4335 75.1167 56.3217 75.1166V75.1166Z" fill="url(#paint0_linear_29_865)"/>
<path d="M68.3309 44.0708H13.5908C10.9387 44.0708 8.39511 43.0172 6.51975 41.1419C4.64439 39.2665 3.59082 36.723 3.59082 34.0708C3.59082 31.4186 4.64439 28.8751 6.51975 26.9997C8.39511 25.1244 10.9387 24.0708 13.5908 24.0708H68.3309C70.983 24.0708 73.5266 25.1244 75.4019 26.9997C77.2773 28.8751 78.3309 31.4186 78.3309 34.0708C78.3309 36.723 77.2773 39.2665 75.4019 41.1419C73.5266 43.0172 70.983 44.0708 68.3309 44.0708Z" fill="url(#paint1_linear_29_865)"/>
<path d="M68.3309 44.0708C73.8538 44.0708 78.3309 39.5936 78.3309 34.0708C78.3309 28.548 73.8538 24.0708 68.3309 24.0708C62.8081 24.0708 58.3309 28.548 58.3309 34.0708C58.3309 39.5936 62.8081 44.0708 68.3309 44.0708Z" fill="#FF5C35"/>
<defs>
<linearGradient id="paint0_linear_29_865" x1="14.3531" y1="34.3963" x2="55.6143" y2="64.8315" gradientUnits="userSpaceOnUse">
<stop offset="0.181" stop-color="#FF824E"/>
<stop offset="0.822" stop-color="#FF5C35"/>
</linearGradient>
<linearGradient id="paint1_linear_29_865" x1="4.34461" y1="34.0708" x2="77.538" y2="34.0708" gradientUnits="userSpaceOnUse">
<stop offset="0.265" stop-color="#FF824E"/>
<stop offset="0.736" stop-color="#FFA766"/>
</linearGradient>
</defs>
</svg>
