<svg width="80" height="80" viewBox="0 0 80 80" fill="none" xmlns="http://www.w3.org/2000/svg">
<path d="M7.50001 39.1667C4.48368 36.1411 2.79136 32.0421 2.79465 27.7698C2.79794 23.4975 4.49657 19.4011 7.51755 16.3801C10.5385 13.3591 14.6349 11.6605 18.9072 11.6572C23.1796 11.6539 27.2785 13.3463 30.3042 16.3626L62.8042 48.8626L45.7323 65.9345C42.5664 69.1003 37.4335 69.1003 34.2677 65.9345L7.50001 39.1667Z" fill="#FF5C35"/>
<path d="M17.1958 48.8625L49.6958 16.3625C51.1923 14.8614 52.9701 13.6701 54.9275 12.8566C56.8849 12.0432 58.9834 11.6237 61.103 11.6221C63.2227 11.6204 65.3219 12.0367 67.2805 12.8471C69.2391 13.6575 71.0187 14.8462 72.5175 16.345C74.0164 17.8438 75.205 19.6234 76.0154 21.582C76.8258 23.5406 77.2421 25.6398 77.2404 27.7595C77.2388 29.8791 76.8193 31.9777 76.0059 33.935C75.1925 35.8924 74.0011 37.6702 72.5 39.1667L45.7323 65.9344C42.5664 69.1002 37.4335 69.1002 34.2677 65.9344L17.1958 48.8625Z" fill="url(#paint0_linear_29_878)"/>
<path d="M61.0979 43.8896C70.0035 43.8896 77.2229 36.6702 77.2229 27.7646C77.2229 18.8591 70.0035 11.6396 61.0979 11.6396C52.1923 11.6396 44.9729 18.8591 44.9729 27.7646C44.9729 36.6702 52.1923 43.8896 61.0979 43.8896Z" fill="#FF5C35"/>
<defs>
<linearGradient id="paint0_linear_29_878" x1="28.5243" y1="60.3382" x2="61.2084" y2="27.6541" gradientUnits="userSpaceOnUse">
<stop offset="0.176" stop-color="#FF5C35"/>
<stop offset="0.276" stop-color="#FF653B"/>
<stop offset="0.437" stop-color="#FF7D4B"/>
<stop offset="0.64" stop-color="#FFA564"/>
<stop offset="0.651" stop-color="#FFA766"/>
</linearGradient>
</defs>
</svg>
